# xmcd
#
# Track frame offsets: 
#        150
#        15707
#        39355
#        53237
#        59042
#        63237
#        83167
#        107450
#        128897
#        157555
#        171465
#        213255
#        217750
#        235807
#        248477
#        266782
#        295440
#
# Disc length: 4280 seconds
#
# Revision: 3
# Processed by: cddbd v1.5.2PL0 Copyright (c) Steve Scherf et al.
# Submitted via: ExactAudioCopy v1.1
#
DISCID=e810b611
DTITLE=Millie Jackson - Live And Uncensored [CD1]
DYEAR=1979
DGENRE=R&B
TTITLE0=Keep The Home Fires Burnin'
TTITLE1=Logs And Thangs
TTITLE2=Put Something Down On It
TTITLE3=Da Ya Think I'm Sexy
TTITLE4=Put Something Down On It (Reprise)
TTITLE5=Just When I Needed You Most
TTITLE6=Phuck U Symphony
TTITLE7=What Am I Waiting For
TTITLE8=I Still Love You (You Still Love Me)
TTITLE9=All The Way Lover
TTITLE10=The Soaps
TTITLE11=All The Way Lover (Reprise)
TTITLE12=Hold The Line
TTITLE13=Be A Sweetheart
TTITLE14=Didn't I (Blow Your Mind This Time)
TTITLE15=Give It Up
TTITLE16=A Moment's Pleasure
EXTD=
EXTT0=
EXTT1=
EXTT2=
EXTT3=
EXTT4=
EXTT5=
EXTT6=
EXTT7=
EXTT8=
EXTT9=
EXTT10=
EXTT11=
EXTT12=
EXTT13=
EXTT14=
EXTT15=
EXTT16=
PLAYORDER=
